<svg id="圖層_1" data-name="圖層 1" xmlns="http://www.w3.org/2000/svg" viewBox="0 0 136 50"><defs><style>.cls-1{fill:#00223c;}.cls-2{fill:#f8b62d;}.cls-3{fill:#81cff4;}.cls-4{fill:#0085a4;}.cls-5{fill:#2fbdf0;}</style></defs><title>工作區域 4</title><path class="cls-1" d="M37.06,31.89s.35-.06.28.24l-1.43,2.25a.53.53,0,0,1-.39.17H31.07a6.8,6.8,0,0,0-2.47.5,5.15,5.15,0,0,0-2.07,2.19L22.08,45H18.73a5.34,5.34,0,0,0,.6-1.06l1.41-2.46c.94-1.64,1.89-3.28,2.82-4.93a10.75,10.75,0,0,1,2.85-3.37,6.19,6.19,0,0,1,2.17-1.17,14.74,14.74,0,0,1,3.32-.17"/><path class="cls-1" d="M26.74,38.3a.37.37,0,0,1,.35-.22H33.5s.28,0,.14.22l-1.32,2.19a.37.37,0,0,1-.3.13H25.56s-.2,0-.08-.21l.11-.19h0Z"/><path class="cls-1" d="M83.31,35.52c1.83,0,3.66,0,5.48,0a3.51,3.51,0,0,1,2.08.35A2.05,2.05,0,0,1,92,37.3a2.53,2.53,0,0,1-.37,1.36c-1.41,2.33-3.88,6.45-3.88,6.45H83.94l4.17-6.68H81.56Z"/><path class="cls-1" d="M94.27,37.32A2.77,2.77,0,0,1,96,35.86a8.1,8.1,0,0,1,3-.35H107s.53,0,.24.53l-1.41,2.31a.65.65,0,0,1-.52.33h-8L95,42.43l7.58,0s.56.07.31.49l-1.13,1.93a.66.66,0,0,1-.56.3L92,45.05s-1.25,0-1.45-.48,0-.87.62-1.91Z"/><path class="cls-1" d="M62.12,6S56,5.36,53.91,8.66,41.73,27.54,41.73,27.54s-.69.86.19.86h6.13a1.68,1.68,0,0,0,1.64-.61l13-21S63.38,6,62.12,6Z"/><path class="cls-1" d="M47.29,6s-6.08-.63-8.21,2.67L26.9,27.54s-.69.86.18.86h6.13a1.69,1.69,0,0,0,1.65-.61l13-21S48.55,6,47.29,6Z"/><path class="cls-1" d="M89.66,8.39S90.82,6.07,95.81,6,115.3,6,115.3,6s1.43-.16.45,1.18-2.21,3.25-2.21,3.25-.1.47-.9.47h-7L94.92,28.4H87l11-17.51H88.67s-.55,0-.34-.33S89.66,8.39,89.66,8.39Z"/><path class="cls-1" d="M71.51,33.92a2.89,2.89,0,0,1,2.12-1.47h2.09s.62,0,.29.53-7.62,12.13-7.62,12.13l-4-.07Z"/><path class="cls-1" d="M76.74,37.5s1-2,2.43-2h2.09s.61,0,.28.53l-5.69,9.14-4,0Z"/><path class="cls-1" d="M36,37.59s-.5-.08-.26-.47a2.85,2.85,0,0,1,2.83-1.82H45.8s1.35.06,1.75.56.14,1.25-.24,1.9-3.9,6.54-3.9,6.54a1.72,1.72,0,0,1-1.6.74H33.49a1.08,1.08,0,0,1-.92-.74c-.19-.68,0-.91.34-1.77a13.38,13.38,0,0,1,1.38-2.27A2,2,0,0,1,36,39.57c1.3,0,4.84,0,4.84,0s.87.21.58.77-.6,1-.6,1-.09.32-.79.31H36.74s-.45-.07-.64.19-.93,1.32,0,1.33h4.84l3-4.75s.57-.86-.63-.86S36,37.59,36,37.59Z"/><path class="cls-1" d="M51.73,33.08a3.06,3.06,0,0,1,2.18-1.2h1.43s.57,0,.22.6l-4.71,7.69s-1.13,1.7,0,2.36c0,0,.54.41,2.75.4s3.1-.25,3.76-2.23H52.78s-.74,0-.42-.43,1-1.49,1-1.49h6.46s1.45,0,1,1S59,43.2,59,43.2A4.36,4.36,0,0,1,55.66,45H50.35s-2.58-.1-3.1-1.3a3.61,3.61,0,0,1,.27-3.57C48.29,38.78,51.73,33.08,51.73,33.08Z"/><path class="cls-2" d="M58.79,16.76a2.79,2.79,0,1,0,5.33,1.68,2.79,2.79,0,0,0-5.33-1.68Z"/><polygon class="cls-3" points="86.67 18.54 75.82 29.23 68.04 29.23 78.89 18.54 86.67 18.54"/><polygon class="cls-4" points="81.64 5.13 86.67 18.54 78.89 18.54 74.03 5.13 81.64 5.13"/><polygon class="cls-5" points="76.03 10.64 73.84 5.13 81.62 5.13 76.03 10.64"/><polygon class="cls-5" points="73.27 24.08 68.04 29.23 75.82 29.23 73.27 24.08"/><path class="cls-3" d="M64.34,14.5s-.5.63.33.63H71a.92.92,0,0,0,.76-.31L76,10.64,73.84,5.13Z"/><path class="cls-4" d="M63.86,20.81s-.39-.64.33-.64h6.66a.89.89,0,0,1,.73.52c.26.51,1.69,3.39,1.69,3.39L68,29.23Z"/></svg>