<svg id="圖層_1" data-name="圖層 1" xmlns="http://www.w3.org/2000/svg" viewBox="0 0 136 50"><defs><style>.cls-1{fill:#fff;}.cls-2{fill:#f8b62d;}.cls-3{fill:#81cff4;}.cls-4{fill:#0085a4;}.cls-5{fill:#2fbdf0;}</style></defs><title>工作區域 6</title><path class="cls-1" d="M37.61,31.54s.35-.06.28.23L36.46,34a.53.53,0,0,1-.39.17H31.63a6.84,6.84,0,0,0-2.48.5,5.15,5.15,0,0,0-2.07,2.19l-4.45,7.8H19.28a5.34,5.34,0,0,0,.6-1.06l1.41-2.46c.94-1.64,1.89-3.28,2.82-4.93A10.64,10.64,0,0,1,27,32.87a6.13,6.13,0,0,1,2.17-1.18,14.74,14.74,0,0,1,3.32-.16"/><path class="cls-1" d="M27.29,38a.37.37,0,0,1,.35-.22h6.41s.28,0,.14.22l-1.32,2.19a.37.37,0,0,1-.3.13H26.11s-.2,0-.08-.21l.11-.19h0Z"/><path class="cls-1" d="M83.86,35.16h5.48a3.51,3.51,0,0,1,2.08.36,2.06,2.06,0,0,1,1.14,1.42,2.54,2.54,0,0,1-.37,1.37c-1.41,2.33-3.88,6.45-3.88,6.45H84.49l4.17-6.68H82.11Z"/><path class="cls-1" d="M94.82,37A2.8,2.8,0,0,1,96.6,35.5a8.19,8.19,0,0,1,3-.34h8s.53,0,.24.54L106.37,38a.65.65,0,0,1-.52.33h-8l-2.24,3.75,7.58,0s.56.07.31.5l-1.13,1.93a.66.66,0,0,1-.56.3l-9.2-.06s-1.25,0-1.45-.49,0-.86.62-1.9Z"/><path class="cls-1" d="M62.67,5.63S56.59,5,54.46,8.3L42.28,27.19s-.69.85.19.85H48.6a1.68,1.68,0,0,0,1.64-.61l13-21S63.93,5.63,62.67,5.63Z"/><path class="cls-1" d="M47.84,5.63S41.76,5,39.63,8.3L27.45,27.19s-.69.85.18.85h6.13a1.69,1.69,0,0,0,1.65-.61l13-21S49.1,5.63,47.84,5.63Z"/><path class="cls-1" d="M90.21,8s1.16-2.32,6.15-2.41,19.49,0,19.49,0,1.43-.15.45,1.19-2.21,3.25-2.21,3.25-.1.47-.9.47h-7L95.47,28H87.55l11-17.5H89.22s-.55,0-.34-.34S90.21,8,90.21,8Z"/><path class="cls-1" d="M72.06,33.57a2.89,2.89,0,0,1,2.12-1.47h2.09s.62,0,.29.53-7.62,12.13-7.62,12.13l-4-.07Z"/><path class="cls-1" d="M77.29,37.15s1-1.95,2.43-2h2.09s.61,0,.28.53L76.4,44.78l-4,0Z"/><path class="cls-1" d="M36.51,37.23s-.5-.07-.26-.46A2.84,2.84,0,0,1,39.08,35h7.27s1.35.06,1.75.56.14,1.24-.24,1.9S44,44,44,44a1.72,1.72,0,0,1-1.6.74H34a1.08,1.08,0,0,1-.92-.74c-.19-.68,0-.92.34-1.77a13.38,13.38,0,0,1,1.38-2.27,2,2,0,0,1,1.69-.69c1.3,0,4.84,0,4.84,0s.87.21.58.77-.6,1-.6,1-.09.31-.79.3H37.29s-.45-.06-.64.19-.93,1.33,0,1.34h4.84l3-4.75s.57-.86-.63-.86Z"/><path class="cls-1" d="M52.28,32.72a3.07,3.07,0,0,1,2.18-1.19h1.43s.57,0,.22.6L51.4,39.82s-1.13,1.7,0,2.35c0,0,.54.41,2.75.41s3.1-.25,3.76-2.24H53.33s-.74,0-.42-.42,1-1.49,1-1.49h6.45s1.46,0,1.06,1-1.89,3.46-1.89,3.46a4.36,4.36,0,0,1-3.35,1.84H50.9s-2.58-.1-3.1-1.3a3.59,3.59,0,0,1,.27-3.57C48.84,38.43,52.28,32.72,52.28,32.72Z"/><path class="cls-2" d="M59.34,16.41a2.79,2.79,0,1,0,3.51-1.83A2.8,2.8,0,0,0,59.34,16.41Z"/><polygon class="cls-3" points="87.22 18.18 76.37 28.88 68.59 28.88 79.44 18.18 87.22 18.18"/><polygon class="cls-4" points="82.19 4.78 87.22 18.18 79.44 18.18 74.58 4.78 82.19 4.78"/><polygon class="cls-5" points="76.58 10.29 74.39 4.78 82.17 4.78 76.58 10.29"/><polygon class="cls-5" points="73.82 23.73 68.59 28.88 76.37 28.88 73.82 23.73"/><path class="cls-3" d="M64.89,14.15s-.5.63.33.63h6.35a1,1,0,0,0,.78-.32l4.23-4.17L74.39,4.78Z"/><path class="cls-4" d="M64.41,20.45s-.39-.63.33-.63H71.4a.86.86,0,0,1,.73.52c.26.51,1.69,3.39,1.69,3.39l-5.23,5.15Z"/></svg>